<svg width="166" height="71" viewBox="0 0 166 71" fill="none" xmlns="http://www.w3.org/2000/svg">
<g filter="url(#filter0_dd_773_4568)">
<path fill-rule="evenodd" clip-rule="evenodd" d="M86.9613 52.7803V37.2688L70.2294 30.2838L79.0112 21.0924L67.5019 10.0898L64.2378 16.8244L64.363 10.35L49.7773 15.3695L50.1529 23.8094L52.6301 23.1157L55.2056 52.8959L65.4898 51.2677L65.4719 41.3249L86.9613 52.7803Z" fill="#0B0000"/>
<path fill-rule="evenodd" clip-rule="evenodd" d="M52.5234 17.5331L61.3857 14.6909L61.9312 24.5277L68.4594 14.6523L74.8356 21.1942L65.9197 31.32L84.2702 39.1529V48.1611L62.9507 36.6672L62.9865 48.7103L57.4688 49.5196L55.1168 19.3925L52.6308 20.0862L52.5234 17.5331Z" fill="white"/>
<path fill-rule="evenodd" clip-rule="evenodd" d="M119.718 11.5703H110.06L109.783 13.2756H99.6236L94.875 44.5588L106.465 46.5243L107.1 42.0346L110.131 48.0562L111.974 44.212L112.653 50.5226L125.79 53.0179L119.718 11.5703Z" fill="#0B0000"/>
<path fill-rule="evenodd" clip-rule="evenodd" d="M112.601 14.4609H117.52L122.501 49.3089L115.239 48.1143L113.308 34.3273L110.58 41.9289L106.484 32.4293H106.44L104.821 43.4415L98.0156 42.1601L102.067 16.0699H108.953L110.67 26.1861L112.601 14.4609Z" fill="white"/>
<path fill-rule="evenodd" clip-rule="evenodd" d="M132.016 14.4219L146.548 17.8614L147.63 23.6421L148.802 18.4298L161.169 21.6574L149.294 60.205L140.181 57.1124L140.109 53.2489L131.363 51.929L134.314 23.6421L132.123 23.1122L132.016 14.4219Z" fill="#0B0000"/>
<path fill-rule="evenodd" clip-rule="evenodd" d="M134.603 18.0352L144.073 20.0873L147.266 36.3696L150.53 21.7733L157.738 23.4979L147.588 56.6213L142.544 54.9931L142.106 34.9726L139.566 50.4167L134.066 49.4822L136.535 21.4361L134.46 20.8388L134.603 18.0352Z" fill="white"/>
<path fill-rule="evenodd" clip-rule="evenodd" d="M130.62 47.4781C127.481 48.7499 124.146 48.6053 121.463 47.0638C118.977 45.6476 117.242 43.1908 116.571 40.1559C115.23 34.1054 118.941 27.1975 124.843 24.76C128.018 23.4689 131.38 23.6231 134.081 25.1742C136.54 26.5809 138.257 28.9799 138.91 31.928C140.278 38.0652 136.567 45.0406 130.62 47.4781Z" fill="#0B0000"/>
<path fill-rule="evenodd" clip-rule="evenodd" d="M136.61 32.4888C135.537 27.633 130.726 25.1955 125.789 27.1995C121.005 29.1745 117.866 34.7529 118.948 39.6087C120.057 44.6186 124.824 47.0465 129.76 45.0426C134.58 43.0771 137.719 37.4602 136.61 32.4888Z" fill="white"/>
<path fill-rule="evenodd" clip-rule="evenodd" d="M133.026 33.3433C132.927 36.0217 130.763 38.045 128.116 37.9294C125.514 37.8137 123.511 35.6171 123.609 32.9387C123.707 30.4241 125.863 28.4008 128.51 28.5164C131.121 28.6321 133.124 30.8287 133.026 33.3433Z" fill="#0B0000"/>
<path fill-rule="evenodd" clip-rule="evenodd" d="M129.662 28.6317C128.079 28.5642 126.756 29.7396 126.693 31.2523C126.639 32.7649 127.874 34.0559 129.456 34.1233C131.039 34.1908 132.363 33.0154 132.425 31.5028C132.479 29.9901 131.245 28.6991 129.662 28.6317Z" fill="white"/>
<path fill-rule="evenodd" clip-rule="evenodd" d="M50.5018 50.8535C47.2914 52.318 43.8126 52.318 40.9599 50.8439C38.3218 49.4758 36.417 47.0094 35.6032 43.8782C33.9756 37.6446 37.5617 30.2935 43.607 27.4899C46.8532 26.0158 50.3587 26.0158 53.2294 27.5091C55.8406 28.858 57.7186 31.2762 58.5145 34.3111C60.1779 40.6313 56.5829 48.0595 50.5018 50.8535Z" fill="#0B0000"/>
<path fill-rule="evenodd" clip-rule="evenodd" d="M56.2157 34.6942C54.8922 29.6457 49.759 27.3141 44.6617 29.6457C39.7163 31.9387 36.649 37.9314 37.9725 42.9798C39.3318 48.1921 44.4291 50.514 49.5265 48.1921C54.5076 45.8991 57.575 39.8583 56.2157 34.6942Z" fill="white"/>
<path fill-rule="evenodd" clip-rule="evenodd" d="M52.7644 35.6576C52.7644 38.336 50.6807 40.446 48.0337 40.446C45.4313 40.446 43.3477 38.336 43.3477 35.6576C43.3477 33.143 45.4313 31.0234 48.0784 31.0234C50.6807 31.0234 52.7644 33.1334 52.7644 35.6576Z" fill="#0B0000"/>
<path fill-rule="evenodd" clip-rule="evenodd" d="M49.2339 31.0898C47.651 31.0898 46.3633 32.3231 46.3633 33.8357C46.3633 35.3483 47.6421 36.5815 49.2339 36.5815C50.8168 36.5815 52.1045 35.3483 52.1045 33.8357C52.1045 32.3231 50.8168 31.0898 49.2339 31.0898Z" fill="white"/>
<path fill-rule="evenodd" clip-rule="evenodd" d="M32.7867 41.5445C39.6905 36.0817 42.9815 27.825 40.4864 21.63C39.3954 18.9227 37.4817 16.6875 35.1387 15.2808C33.4932 14.1054 31.5347 13.3636 29.4779 13.1131C24.4342 12.1593 18.3799 13.142 12.4241 15.8686C10.2331 16.8705 8.18521 18.0267 6.343 19.2888L4 20.8785L5.40401 23.4413L9.76807 31.3897C9.76807 31.3897 11.1095 33.8369 11.1184 33.8273L13.4883 32.5844L13.8191 32.411L24.6667 58.5108L25.713 61.0158L28.1454 60.1776L34.0208 58.1544L36.5963 57.268L35.9167 54.4547L32.7867 41.5445Z" fill="black"/>
<path fill-rule="evenodd" clip-rule="evenodd" d="M37.8634 22.8519C36.996 20.7034 35.5026 19.0173 33.553 17.8323C32.1401 16.8207 30.5036 16.3197 28.9743 16.1366C24.6282 15.3177 19.2178 16.0885 13.5213 18.6898C11.4913 19.6147 9.5954 20.6745 7.85156 21.8692L12.2156 29.8176C13.3335 29.2299 14.5407 28.6037 15.1936 28.2279L27.2573 57.2374L33.1327 55.2142L29.5109 40.2036C36.4594 35.6079 39.965 28.0641 37.8634 22.8519Z" fill="white"/>
<path fill-rule="evenodd" clip-rule="evenodd" d="M99.5824 30.4857L95.4508 26.4777L97.4808 24.1558L99.3051 22.0651L97.6239 19.8396C94.3419 15.4848 89.0925 13.7409 83.5838 15.1765C75.9198 17.1612 71.6005 24.2714 73.3085 32.0657C73.9971 35.2066 75.8215 37.8946 78.4596 39.6385C81.6074 41.7292 85.5691 42.2976 89.6022 41.2474C93.859 40.1395 96.989 38.28 99.7344 35.2259L101.934 32.7787L99.5824 30.4857Z" fill="#0B0000"/>
<path fill-rule="evenodd" clip-rule="evenodd" d="M93.2312 28.5854C92.1938 29.9053 91.0044 31.1096 88.894 31.6588C88.1875 31.8419 87.2306 32.0153 86.6225 31.8997L95.5027 21.716C92.9987 18.3921 88.885 16.8506 84.2258 18.0645C78.4309 19.5675 74.514 24.7701 75.9627 31.3987C77.1253 36.7265 82.5982 39.9926 88.9476 38.3451C92.793 37.3432 95.4669 35.7438 97.8635 33.0751L93.2312 28.5854Z" fill="white"/>
<path fill-rule="evenodd" clip-rule="evenodd" d="M79.3594 13.4979L90.2338 0L96.2523 9.68267L82.5072 17.6408L79.3594 13.4979Z" fill="#0B0000"/>
<path fill-rule="evenodd" clip-rule="evenodd" d="M89.7687 4.29688L92.9524 8.95997L83.8576 13.8158L83.2227 12.7849L89.7687 4.29688Z" fill="white"/>
<path fill-rule="evenodd" clip-rule="evenodd" d="M83.0298 28.74C82.377 27.4586 82.5022 25.8111 83.477 24.6646C84.416 23.5567 85.8468 23.2387 87.072 23.7493L83.0298 28.74ZM83.477 24.6646C82.5112 25.8111 82.377 27.4586 83.0298 28.74L87.072 23.7493C85.8468 23.2387 84.407 23.5567 83.477 24.6646ZM89.3166 22.9979C87.2419 20.965 84.0404 21.1288 82.1535 23.364C80.2665 25.5992 80.4186 29.0483 82.4933 31.0812C82.6632 31.2546 82.851 31.3991 83.0388 31.534L89.6832 23.3832C89.558 23.2484 89.4418 23.1231 89.3166 22.9979ZM83.0298 28.74C82.377 27.4586 82.5022 25.8111 83.477 24.6646C84.416 23.5567 85.8468 23.2387 87.072 23.7493L83.0298 28.74Z" fill="black"/>
<path fill-rule="evenodd" clip-rule="evenodd" d="M33.2978 27.8132C32.7791 24.7398 29.0678 23.0153 25.3477 25.1637L26.2777 28.69L27.7443 33.8926L28.415 36.2627C31.2052 34.3647 34.0132 32.0717 33.2978 27.8132ZM29.6044 32.5149C29.202 31.089 28.3345 28.0156 28.3345 28.0156C28.3435 28.0348 28.1557 27.3508 27.9589 26.5897C28.7459 26.4355 29.4971 26.5126 30.1231 26.8402C30.4719 27.0232 31.071 27.4375 31.1962 28.2275C31.4913 29.9906 30.9279 31.2527 29.6044 32.5149Z" fill="black"/>
<path fill-rule="evenodd" clip-rule="evenodd" d="M34.8906 62.8945C34.8996 62.9234 34.9085 62.9427 34.9174 62.9716C34.9174 62.9812 34.9264 62.9909 34.9264 63.0005C34.9175 62.962 34.8996 62.9331 34.8906 62.8945Z" fill="black"/>
<path fill-rule="evenodd" clip-rule="evenodd" d="M151.914 56.7109H154.588V57.1349H153.479V60.2661H153.023V57.1349H151.914V56.7109Z" fill="black"/>
<path fill-rule="evenodd" clip-rule="evenodd" d="M154.98 60.2661V56.7109H155.624L156.572 59.7169L157.511 56.7109H158.146V60.2661H157.726V58.1657C157.726 58.0887 157.726 57.9731 157.735 57.8093C157.735 57.6455 157.735 57.4624 157.735 57.2697L156.796 60.2661H156.358L155.41 57.2697V57.3757C155.41 57.4624 155.41 57.5973 155.419 57.7707C155.419 57.9442 155.428 58.079 155.428 58.1657V60.2661H154.98Z" fill="black"/>
</g>
<defs>
<filter id="filter0_dd_773_4568" x="0" y="0" width="165.168" height="71" filterUnits="userSpaceOnUse" color-interpolation-filters="sRGB">
<feFlood flood-opacity="0" result="BackgroundImageFix"/>
<feColorMatrix in="SourceAlpha" type="matrix" values="0 0 0 0 0 0 0 0 0 0 0 0 0 0 0 0 0 0 127 0" result="hardAlpha"/>
<feOffset dy="4"/>
<feGaussianBlur stdDeviation="2"/>
<feComposite in2="hardAlpha" operator="out"/>
<feColorMatrix type="matrix" values="0 0 0 0 0 0 0 0 0 0 0 0 0 0 0 0 0 0 0.25 0"/>
<feBlend mode="normal" in2="BackgroundImageFix" result="effect1_dropShadow_773_4568"/>
<feColorMatrix in="SourceAlpha" type="matrix" values="0 0 0 0 0 0 0 0 0 0 0 0 0 0 0 0 0 0 127 0" result="hardAlpha"/>
<feOffset dy="4"/>
<feGaussianBlur stdDeviation="2"/>
<feComposite in2="hardAlpha" operator="out"/>
<feColorMatrix type="matrix" values="0 0 0 0 0 0 0 0 0 0 0 0 0 0 0 0 0 0 0.25 0"/>
<feBlend mode="normal" in2="effect1_dropShadow_773_4568" result="effect2_dropShadow_773_4568"/>
<feBlend mode="normal" in="SourceGraphic" in2="effect2_dropShadow_773_4568" result="shape"/>
</filter>
</defs>
</svg>
